<svg style="display:none">
<symbol id="Efecty" xmlns="http://www.w3.org/2000/svg"  viewBox="0 0 512 512"><rect width="256" height="256" fill="none"></rect><path d="M256,0C114.625,0,0,114.625,0,256s114.625,256,256,256c141.406,0,256-114.625,256-256S397.406,0,256,0z M325.812,354.844c-12.594,14.125-30.78,22.438-54.562,24.938V416h-30.313v-36.031c-39.656-4.062-64.188-27.125-73.656-69.125l46.875-12.219 c4.344,26.406,18.719,39.594,43.125,39.594c11.406,0,19.844-2.812,25.219-8.469s8.062-12.469,8.062-20.469 c0-8.281-2.688-14.563-8.062-18.813c-5.375-4.28-17.344-9.688-35.875-16.25c-16.656-5.78-29.688-11.469-39.063-17.155 c-9.375-5.625-17-13.531-22.844-23.688c-5.844-10.188-8.781-22.063-8.781-35.563c0-17.719,5.25-33.688,15.688-47.875 c10.438-14.156,26.875-22.813,49.313-25.969V96h30.313v27.969c33.875,4.063,55.813,23.219,65.781,57.5l-41.75,17.125 c-8.156-23.5-20.72-35.25-37.781-35.25c-8.563,0-15.438,2.625-20.594,7.875c-5.188,5.25-7.781,11.625-7.781,19.094 c0,7.625,2.5,13.469,7.5,17.563c4.969,4.063,15.688,9.094,32.063,15.125c18,6.563,32.125,12.781,42.344,18.625 c10.25,5.844,18.406,13.938,24.531,24.219c6.094,10.313,9.155,22.345,9.155,36.126C344.719,323.125,338.406,340.75,325.812,354.844 z"/></symbol>
<symbol id="Card" xmlns="http://www.w3.org/2000/svg"  viewBox="0 0 48 48"><rect width="256" height="256" fill="none"></rect><path d="M38.62744,34.90911H9.37245c-1.21976,0-2.20851-0.98886-2.20851-2.20851v-17.4011    c0-1.21976,0.98875-2.20862,2.20862-2.20862h29.25477c1.21987,0,2.20873,0.98886,2.20873,2.20873v17.40088    C40.83606,33.92026,39.8472,34.90911,38.62744,34.90911z" style="fill:#F9F9F9;"/><rect height="3.43589" style="fill:#383838;" width="33.67212" x="7.16394" y="18.76018"/><path d="    M38.62744,34.90911H9.37245c-1.21976,0-2.20851-0.98886-2.20851-2.20851v-17.4011c0-1.21976,0.98875-2.20862,2.20862-2.20862    h29.25477c1.21987,0,2.20873,0.98886,2.20873,2.20873v17.40088C40.83606,33.92026,39.8472,34.90911,38.62744,34.90911z" style="fill:none;stroke:#303030;stroke-width:0.8;stroke-linecap:round;stroke-linejoin:round;stroke-miterlimit:10;"/><line style="fill:none;stroke:#303030;stroke-width:0.8;stroke-linecap:round;stroke-linejoin:round;stroke-miterlimit:10;" x1="7.16394" x2="40.60214" y1="18.76018" y2="18.76018"/><line style="fill:none;stroke:#303030;stroke-width:0.8;stroke-linecap:round;stroke-linejoin:round;stroke-miterlimit:10;" x1="40.59009" x2="7.34546" y1="22.19606" y2="22.19606"/><line style="fill:none;stroke:#303030;stroke-width:0.8;stroke-linecap:round;stroke-linejoin:round;stroke-miterlimit:10;" x1="10.25618" x2="18.5883" y1="30.87183" y2="30.87183"/><line style="fill:none;stroke:#303030;stroke-width:0.8;stroke-linecap:round;stroke-linejoin:round;stroke-miterlimit:10;" x1="10.25618" x2="13.83698" y1="28.18824" y2="28.18824"/></g><g><path d="M37.74658,29.02528c0,1.63974-1.32927,2.96901-2.96901,2.96901    c-0.76863,0-1.46904-0.29208-1.9963-0.7713c-0.13538-0.12305-0.72256,0.09567-0.97992-0.05028    c-0.87858-0.49825-1.83891-1.47369-1.83891-2.14744c0-0.69577,0.91921-1.7924,1.72252-2.29854    c0.14328-0.09028,0.91186,0.28046,0.99319,0.19913c0.53729-0.53729,1.27954-0.86961,2.09941-0.86961    C36.4173,26.05626,37.74658,27.38554,37.74658,29.02528z" style="fill:#FFC601;"/><path d="M34.83688,25.8497c-0.8222,0-1.56873,0.31755-2.13306,0.83198    c-0.48878-0.36658-1.09322-0.58683-1.75126-0.58683c-1.6182,0-2.93015,1.31195-2.93015,2.93037    c0,1.6182,1.31195,2.93015,2.93015,2.93015c0.65771,0,1.26173-0.22004,1.75007-0.58629    c0.56455,0.51454,1.31195,0.83177,2.13426,0.83177c1.75093,0,3.17552-1.4248,3.17552-3.17584    C38.01239,27.27396,36.58781,25.8497,34.83688,25.8497z M34.83688,31.71022c-0.65761,0-1.25803-0.24037-1.72528-0.63423    l-0.03283-0.03838h-1.12725v-0.49062h1.50166c0.07784-0.12752,0.14818-0.26015,0.20601-0.39952h-2.10447v-0.49062h2.25798    c0.0287-0.13013,0.04783-0.26341,0.05849-0.39952h-2.51802v-0.49051h2.51671c-0.01196-0.13643-0.03392-0.26961-0.06392-0.40006    h-2.25124v-0.49062h2.09382c-0.05957-0.13959-0.13198-0.272-0.21167-0.39952h-1.48535v-0.49051h0.97451    c0.03718,0.0175,0.0761,0.03588,0.111,0.05251c0.47671-0.43225,1.10703-0.69827,1.79986-0.69827    c1.48057,0,2.68489,1.20433,2.68489,2.68468C37.52177,30.50579,36.31744,31.71022,34.83688,31.71022z" style="fill:#303030;"/><circle cx="30.99162" cy="29.02528" r="2.33101" style="fill:#F43735;"/></symbol>
<symbol id="American2" xmlns="http://www.w3.org/2000/svg"  viewBox="0 0 48 48"><rect width="256" height="256" fill="none"></rect><path d="M38.59184,34.88601H9.40817c-1.21976,0-2.20862-0.98886-2.20862-2.20862V15.32261    c0-1.21987,0.98886-2.20862,2.20862-2.20862h29.18367c1.21976,0,2.20862,0.98875,2.20862,2.20862v17.35478    C40.80045,33.89716,39.8116,34.88601,38.59184,34.88601z" style="fill:#F9F9F9;"/><path d="    M38.59184,34.88601H9.40817c-1.21976,0-2.20862-0.98886-2.20862-2.20862V15.32261c0-1.21987,0.98886-2.20862,2.20862-2.20862    h29.18367c1.21976,0,2.20862,0.98875,2.20862,2.20862v17.35478C40.80045,33.89716,39.8116,34.88601,38.59184,34.88601z" style="fill:none;stroke:#303030;stroke-width:0.8;stroke-linecap:round;stroke-linejoin:round;stroke-miterlimit:10;"/><g><path d="M23.11605,20.66228l-1.98804,4.53965l-2.08197-4.53965h-2.67685v6.27711l-2.75501-6.27711     h-2.36376l-2.88036,6.66859l1.75322,0.00685l0.54802-1.43143h3.4124l0.6263,1.43143h3.28727v-5.21965l2.31679,5.21281     c0,0,1.40882,0.01554,1.51829,0c0.10958-0.01576,2.28548-5.16584,2.28548-5.16584v5.16584h1.58113v-6.66859H23.11605z      M11.31174,24.49356l1.09442-2.60684l1.09442,2.60684H11.31174z" style="fill:#128CF9;"/><path d="M39.62994,20.66228h-1.91412l-2.03631,2.20655l-1.96836-2.20655H27.1815v6.67543h6.44811     l2.02272-2.16111l1.98195,2.16111h1.94118L36.68402,24L39.62994,20.66228z M32.73381,26.01826h-3.95043v-1.3575     c0,0,3.46154,0,3.54308,0c0.08142,0,0-1.38468,0-1.38468h-3.54308v-1.24879h4.03175l1.83258,1.99554L32.73381,26.01826z" style="fill:#128CF9;"/></symbol>
</svg>
